<?xml version="1.0"?>
<svg width="64" height="64" xmlns="http://www.w3.org/2000/svg" xmlns:svg="http://www.w3.org/2000/svg" class="iconify iconify--emojione-monotone" preserveAspectRatio="xMidYMid meet">
 <g class="layer">
  <title>Layer 1</title>
  <circle cx="30.67" cy="32.74" fill="#ff7832" id="svg_7" r="26.31" stroke="#ff7832"/>
  <path d="m37.01,28.21c0.78,-0.48 1.18,-1.33 1.18,-2.55c0,-1.35 -0.52,-2.24 -1.56,-2.68c-0.9,-0.3 -2.04,-0.45 -3.43,-0.45l-6.31,0l0,6.4l7.05,0c1.26,0 2.28,-0.24 3.07,-0.72" fill="#000000" id="svg_2" transform="matrix(1 0 0 1 0 0)"/>
  <path d="m36.93,34.23c-0.69,-0.32 -1.65,-0.48 -2.9,-0.5l-7.14,0l0,7.74l7.04,0c1.26,0 2.24,-0.17 2.94,-0.51c1.27,-0.63 1.91,-1.84 1.91,-3.63c0,-1.5 -0.62,-2.54 -1.85,-3.1" fill="#000000" id="svg_1" transform="matrix(1 0 0 1 0 0)"/>
  <path d="m32,2c-16.57,0 -30,13.43 -30,30s13.43,30 30,30s30,-13.43 30,-30s-13.43,-30 -30,-30m11.61,40.37a8,8 0 0 1 -2.06,2.29c-0.92,0.71 -2.02,1.19 -3.28,1.45c-1.26,0.27 -2.62,0.4 -4.1,0.4l-13.07,0l0,-29.02l14.02,0c3.54,0.05 6.05,1.08 7.52,3.09c0.89,1.24 1.34,2.71 1.34,4.43c0,1.77 -0.45,3.2 -1.35,4.27c-0.5,0.61 -1.24,1.16 -2.21,1.66c1.48,0.53 2.6,1.39 3.35,2.56c0.75,1.16 1.13,2.58 1.13,4.25c0,1.72 -0.43,3.26 -1.29,4.62" fill="#000000" id="svg_3"/>
  <circle cx="31.66" cy="32.12" fill="#000000" fill-opacity="0" id="svg_8" r="30.05" stroke="#ff7832"/>
 </g>
</svg>